<?xml version="1.0" encoding="utf-8"?>
<!-- Generator: Adobe Illustrator 22.1.0, SVG Export Plug-In . SVG Version: 6.00 Build 0)  -->
<svg version="1.1" id="Layer_1" xmlns="http://www.w3.org/2000/svg" xmlns:xlink="http://www.w3.org/1999/xlink" x="0px" y="0px"
	 viewBox="0 0 512 512" style="enable-background:new 0 0 512 512;" xml:space="preserve">
<g>
	<path d="M474.9,206c-22.7,0.1-105.5,4.8-167.1,64.8C282,294,266.2,320.3,256,345c-10.2-24.7-26-51-51.9-74.1
		c-61.6-60-144.4-64.7-167.1-64.8c-3.4,0-6.1,2.7-6.1,6.1c0.2,21.8,5.6,98.5,69.4,155.7C166,431.7,231,431,256,431
		s90,0.7,155.6-63.2c63.8-57.2,69.2-133.9,69.4-155.7C481,208.7,478.4,206,474.9,206L474.9,206z M256,292.4
		c10-14.7,21.6-28,34.4-39.5c14.9-14.5,30.9-26,47.1-35.3c-12.8-55.1-40.4-103.9-75.6-134.5c-3.2-2.8-8.6-2.8-11.8,0
		c-35.1,30.6-62.7,79.4-75.6,134.4c15.9,9.1,31.6,20.4,46.3,34.7C234.1,264.1,245.9,277.6,256,292.4z"/>
</g>
</svg>
